<?xml version="1.0" encoding="UTF-8" standalone="no"?>
<!-- Created with Inkscape (http://www.inkscape.org/) -->

<svg
   width="64mm"
   height="63.685616mm"
   viewBox="0 0 64 63.685616"
   version="1.1"
   id="svg1"
   xml:space="preserve"
   inkscape:export-filename="logo_freestack_white_96px.svg"
   inkscape:export-xdpi="96"
   inkscape:export-ydpi="96"
   xmlns:inkscape="http://www.inkscape.org/namespaces/inkscape"
   xmlns:sodipodi="http://sodipodi.sourceforge.net/DTD/sodipodi-0.dtd"
   xmlns="http://www.w3.org/2000/svg"
   xmlns:svg="http://www.w3.org/2000/svg"><sodipodi:namedview
     id="namedview1"
     pagecolor="#000000"
     bordercolor="#000000"
     borderopacity="0.25"
     inkscape:showpageshadow="2"
     inkscape:pageopacity="0.0"
     inkscape:pagecheckerboard="0"
     inkscape:deskcolor="#d1d1d1"
     inkscape:document-units="mm"><inkscape:page
       x="0"
       y="0"
       width="64"
       height="63.685616"
       id="page2"
       margin="0"
       bleed="0" /></sodipodi:namedview><defs
     id="defs1" /><g
     inkscape:label="Capa 1"
     inkscape:groupmode="layer"
     id="layer1"
     transform="translate(-41.000001,-84.814383)"><g
       style="fill:none"
       id="g1"
       transform="matrix(1.7412313,0,0,1.7412313,41.000001,83.406855)"><path
         d="m 31.1874,17.3385 v 5.2963 c 0,2.3466 -0.0016,4.0067 -0.1094,5.3037 -0.1062,1.2769 -0.3074,2.055 -0.6255,2.6651 -0.6189,1.1886 -1.5903,2.1581 -2.7822,2.7755 -0.6116,0.3173 -1.3916,0.5181 -2.6716,0.624 -1.3001,0.1075 -2.9642,0.1092 -5.3163,0.1092 h -4.8985 c -2.3522,0 -4.0162,-0.0017 -5.31612,-0.1092 C 8.18745,33.8972 7.40774,33.6964 6.796,33.3791 5.60432,32.7617 4.63267,31.7922 4.01363,30.6036 3.69586,29.9935 3.49465,29.2154 3.38829,27.9385 3.28037,26.6415 3.27901,24.9814 3.27901,22.6348 v -4.8865 c 0,-2.3466 0.00136,-4.0065 0.10928,-5.3034 C 3.49465,11.1677 3.69586,10.3899 4.01363,9.77958 4.63267,8.59078 5.60432,7.62147 6.796,7.00392 7.40774,6.68691 8.18745,6.48619 9.46778,6.38012 10.7677,6.27242 12.4316,6.27111 14.7839,6.27111 h 5.3092 C 20.1405,5.12455 20.37,4.02484 20.7532,3 H 14.711 c -2.2629,-4e-5 -4.063,-4e-5 -5.5146,0.12022 C 7.70965,3.24337 6.44223,3.50114 5.28446,4.1011 3.49387,5.02899 2.03393,6.48545 1.1038,8.27172 0.502386,9.42667 0.244,10.691 0.120545,12.1742 7.08486e-7,13.6223 0,15.418 0,17.6755 v 5.032 c 0,2.2575 7.08486e-7,4.0534 0.120545,5.5016 0.123455,1.4831 0.381841,2.7474 0.983255,3.9025 0.93013,1.786 2.39007,3.2425 4.18066,4.1706 1.15777,0.5999 2.42519,0.8575 3.91194,0.981 1.4516,0.1202 3.2516,0.1202 5.5145,0.1202 h 5.0444 c 2.2628,0 4.063,0 5.5147,-0.1202 1.4867,-0.1235 2.754,-0.3811 3.9119,-0.981 1.7903,-0.9281 3.2503,-2.3846 4.1807,-4.1706 0.6013,-1.1551 0.8595,-2.4194 0.9833,-3.9025 0.1205,-1.4482 0.1205,-3.2441 0.1205,-5.5011 v -6.0281 c -1.0275,0.3824 -2.1297,0.6113 -3.279,0.6586 z"
         fill="#ffffff"
         id="path1" /><path
         d="m 22,8.16835 c 0,-4.06481 3.3032,-7.36 7.3778,-7.36 4.0746,0 7.3778,3.29519 7.3778,7.36 0,4.06485 -3.3032,7.35995 -7.3778,7.35995 C 25.3032,15.5283 22,12.2332 22,8.16835 Z"
         fill="#ffea00"
         id="path2" /><path
         d="m 27.3728,17.1568 c -0.1118,0.2195 -0.2903,0.398 -0.5098,0.5099 -0.2496,0.1271 -0.5763,0.1271 -1.2297,0.1271 H 21.2 c -0.6534,0 -0.9801,0 -1.2297,-0.1271 -0.2195,-0.1119 -0.398,-0.2904 -0.5098,-0.5099 -0.1272,-0.2495 -0.1272,-0.5762 -0.1272,-1.2296 v -4.4334 c 0,-0.6534 0,-0.9801 0.1272,-1.2296 0.1118,-0.2196 0.2903,-0.39803 0.5098,-0.50988 M 8.36667,9.5 H 12.8 c 0.6534,0 0.9801,0 1.2297,0.12716 0.2195,0.11185 0.398,0.29033 0.5098,0.50984 0.1272,0.2496 0.1272,0.5763 0.1272,1.2297 V 15.8 c 0,0.6534 0,0.9801 -0.1272,1.2297 -0.1118,0.2195 -0.2903,0.398 -0.5098,0.5098 -0.2496,0.1272 -0.5763,0.1272 -1.2297,0.1272 H 8.36667 c -0.6534,0 -0.9801,0 -1.22966,-0.1272 C 6.91749,17.4277 6.73901,17.2492 6.62716,17.0297 6.5,16.7801 6.5,16.4534 6.5,15.8 v -4.4333 c 0,-0.6534 0,-0.9801 0.12716,-1.2297 C 6.73901,9.91749 6.91749,9.73901 7.13701,9.62716 7.38657,9.5 7.71327,9.5 8.36667,9.5 Z M 21.2,22.3333 h 4.4333 c 0.6534,0 0.9801,0 1.2297,0.1272 0.2195,0.1118 0.398,0.2903 0.5098,0.5098 C 27.5,23.2199 27.5,23.5466 27.5,24.2 v 4.4333 c 0,0.6534 0,0.9801 -0.1272,1.2297 -0.1118,0.2195 -0.2903,0.398 -0.5098,0.5098 C 26.6134,30.5 26.2867,30.5 25.6333,30.5 H 21.2 c -0.6534,0 -0.9801,0 -1.2297,-0.1272 -0.2195,-0.1118 -0.398,-0.2903 -0.5098,-0.5098 -0.1272,-0.2496 -0.1272,-0.5763 -0.1272,-1.2297 V 24.2 c 0,-0.6534 0,-0.9801 0.1272,-1.2297 0.1118,-0.2195 0.2903,-0.398 0.5098,-0.5098 0.2496,-0.1272 0.5763,-0.1272 1.2297,-0.1272 z m -12.83333,0 H 12.8 c 0.6534,0 0.9801,0 1.2297,0.1272 0.2195,0.1118 0.398,0.2903 0.5098,0.5098 0.1272,0.2496 0.1272,0.5763 0.1272,1.2297 v 4.4333 c 0,0.6534 0,0.9801 -0.1272,1.2297 -0.1118,0.2195 -0.2903,0.398 -0.5098,0.5098 C 13.7801,30.5 13.4534,30.5 12.8,30.5 H 8.36667 c -0.6534,0 -0.9801,0 -1.22966,-0.1272 C 6.91749,30.261 6.73901,30.0825 6.62716,29.863 6.5,29.6134 6.5,29.2867 6.5,28.6333 V 24.2 c 0,-0.6534 0,-0.9801 0.12716,-1.2297 0.11185,-0.2195 0.29033,-0.398 0.50985,-0.5098 0.24956,-0.1272 0.57626,-0.1272 1.22966,-0.1272 z"
         stroke="#ffea00"
         stroke-linecap="round"
         stroke-linejoin="round"
         id="path3" /></g></g></svg>
