<svg width="37" height="38" viewBox="0 0 37 38" fill="none" xmlns="http://www.w3.org/2000/svg">
<path d="M31.1874 17.3385V22.6348C31.1874 24.9814 31.1858 26.6415 31.078 27.9385C30.9718 29.2154 30.7706 29.9935 30.4525 30.6036C29.8336 31.7922 28.8622 32.7617 27.6703 33.3791C27.0587 33.6964 26.2787 33.8972 24.9987 34.0031C23.6986 34.1106 22.0345 34.1123 19.6824 34.1123H14.7839C12.4317 34.1123 10.7677 34.1106 9.46778 34.0031C8.18745 33.8972 7.40774 33.6964 6.796 33.3791C5.60432 32.7617 4.63267 31.7922 4.01363 30.6036C3.69586 29.9935 3.49465 29.2154 3.38829 27.9385C3.28037 26.6415 3.27901 24.9814 3.27901 22.6348V17.7483C3.27901 15.4017 3.28037 13.7418 3.38829 12.4449C3.49465 11.1677 3.69586 10.3899 4.01363 9.77958C4.63267 8.59078 5.60432 7.62147 6.796 7.00392C7.40774 6.68691 8.18745 6.48619 9.46778 6.38012C10.7677 6.27242 12.4316 6.27111 14.7839 6.27111H20.0931C20.1405 5.12455 20.37 4.02484 20.7532 3H14.711C12.4481 2.99996 10.648 2.99996 9.1964 3.12022C7.70965 3.24337 6.44223 3.50114 5.28446 4.1011C3.49387 5.02899 2.03393 6.48545 1.1038 8.27172C0.502386 9.42667 0.244 10.691 0.120545 12.1742C7.08486e-07 13.6223 0 15.418 0 17.6755V22.7075C0 24.965 7.08486e-07 26.7609 0.120545 28.2091C0.244 29.6922 0.502386 30.9565 1.1038 32.1116C2.03393 33.8976 3.49387 35.3541 5.28446 36.2822C6.44223 36.8821 7.70965 37.1397 9.1964 37.2632C10.648 37.3834 12.448 37.3834 14.7109 37.3834H19.7553C22.0181 37.3834 23.8183 37.3834 25.27 37.2632C26.7567 37.1397 28.024 36.8821 29.1819 36.2822C30.9722 35.3541 32.4322 33.8976 33.3626 32.1116C33.9639 30.9565 34.2221 29.6922 34.3459 28.2091C34.4664 26.7609 34.4664 24.965 34.4664 22.708V16.6799C33.4389 17.0623 32.3367 17.2912 31.1874 17.3385Z" fill="black"/>
<path d="M22 8.16835C22 4.10354 25.3032 0.80835 29.3778 0.80835C33.4524 0.80835 36.7556 4.10354 36.7556 8.16835C36.7556 12.2332 33.4524 15.5283 29.3778 15.5283C25.3032 15.5283 22 12.2332 22 8.16835Z" fill="#FFEA00"/>
<path d="M27.3728 17.1568C27.261 17.3763 27.0825 17.5548 26.863 17.6667C26.6134 17.7938 26.2867 17.7938 25.6333 17.7938H21.2C20.5466 17.7938 20.2199 17.7938 19.9703 17.6667C19.7508 17.5548 19.5723 17.3763 19.4605 17.1568C19.3333 16.9073 19.3333 16.5806 19.3333 15.9272V11.4938C19.3333 10.8404 19.3333 10.5137 19.4605 10.2642C19.5723 10.0446 19.7508 9.86617 19.9703 9.75432M8.36667 9.5H12.8C13.4534 9.5 13.7801 9.5 14.0297 9.62716C14.2492 9.73901 14.4277 9.91749 14.5395 10.137C14.6667 10.3866 14.6667 10.7133 14.6667 11.3667V15.8C14.6667 16.4534 14.6667 16.7801 14.5395 17.0297C14.4277 17.2492 14.2492 17.4277 14.0297 17.5395C13.7801 17.6667 13.4534 17.6667 12.8 17.6667H8.36667C7.71327 17.6667 7.38657 17.6667 7.13701 17.5395C6.91749 17.4277 6.73901 17.2492 6.62716 17.0297C6.5 16.7801 6.5 16.4534 6.5 15.8V11.3667C6.5 10.7133 6.5 10.3866 6.62716 10.137C6.73901 9.91749 6.91749 9.73901 7.13701 9.62716C7.38657 9.5 7.71327 9.5 8.36667 9.5ZM21.2 22.3333H25.6333C26.2867 22.3333 26.6134 22.3333 26.863 22.4605C27.0825 22.5723 27.261 22.7508 27.3728 22.9703C27.5 23.2199 27.5 23.5466 27.5 24.2V28.6333C27.5 29.2867 27.5 29.6134 27.3728 29.863C27.261 30.0825 27.0825 30.261 26.863 30.3728C26.6134 30.5 26.2867 30.5 25.6333 30.5H21.2C20.5466 30.5 20.2199 30.5 19.9703 30.3728C19.7508 30.261 19.5723 30.0825 19.4605 29.863C19.3333 29.6134 19.3333 29.2867 19.3333 28.6333V24.2C19.3333 23.5466 19.3333 23.2199 19.4605 22.9703C19.5723 22.7508 19.7508 22.5723 19.9703 22.4605C20.2199 22.3333 20.5466 22.3333 21.2 22.3333ZM8.36667 22.3333H12.8C13.4534 22.3333 13.7801 22.3333 14.0297 22.4605C14.2492 22.5723 14.4277 22.7508 14.5395 22.9703C14.6667 23.2199 14.6667 23.5466 14.6667 24.2V28.6333C14.6667 29.2867 14.6667 29.6134 14.5395 29.863C14.4277 30.0825 14.2492 30.261 14.0297 30.3728C13.7801 30.5 13.4534 30.5 12.8 30.5H8.36667C7.71327 30.5 7.38657 30.5 7.13701 30.3728C6.91749 30.261 6.73901 30.0825 6.62716 29.863C6.5 29.6134 6.5 29.2867 6.5 28.6333V24.2C6.5 23.5466 6.5 23.2199 6.62716 22.9703C6.73901 22.7508 6.91749 22.5723 7.13701 22.4605C7.38657 22.3333 7.71327 22.3333 8.36667 22.3333Z" stroke="#FFEA00" stroke-linecap="round" stroke-linejoin="round"/>
</svg>
